<?xml version="1.0" encoding="UTF-8" standalone="no"?>
<!DOCTYPE svg PUBLIC "-//W3C//DTD SVG 1.1//EN"
 "http://www.w3.org/Graphics/SVG/1.1/DTD/svg11.dtd">
<!-- Generated by graphviz version 2.40.1 (20161225.0304)
 -->
<!-- Title: %3 Pages: 1 -->
<svg width="1458pt" height="692pt"
 viewBox="0.00 0.00 1458.24 692.00" xmlns="http://www.w3.org/2000/svg" xmlns:xlink="http://www.w3.org/1999/xlink">
<g id="graph0" class="graph" transform="scale(1 1) rotate(0) translate(4 688)">
<title>%3</title>
<polygon fill="#ffffff" stroke="transparent" points="-4,4 -4,-688 1454.2359,-688 1454.2359,4 -4,4"/>
<!-- [root] aws_elb.web -->
<g id="node1" class="node">
<title>[root] aws_elb.web</title>
<polygon fill="none" stroke="#000000" points="1109.0973,-468 1020.6959,-468 1020.6959,-432 1109.0973,-432 1109.0973,-468"/>
<text text-anchor="middle" x="1064.8966" y="-445.8" font-family="Times,serif" font-size="14.00" fill="#000000">aws_elb.web</text>
</g>
<!-- [root] aws_instance.web -->
<g id="node2" class="node">
<title>[root] aws_instance.web</title>
<polygon fill="none" stroke="#000000" points="914.8634,-396 796.9299,-396 796.9299,-360 914.8634,-360 914.8634,-396"/>
<text text-anchor="middle" x="855.8966" y="-373.8" font-family="Times,serif" font-size="14.00" fill="#000000">aws_instance.web</text>
</g>
<!-- [root] aws_elb.web&#45;&gt;[root] aws_instance.web -->
<g id="edge1" class="edge">
<title>[root] aws_elb.web&#45;&gt;[root] aws_instance.web</title>
<path fill="none" stroke="#000000" d="M1020.5731,-434.7307C990.691,-424.4363 950.8503,-410.7113 917.8414,-399.3398"/>
<polygon fill="#000000" stroke="#000000" points="918.8769,-395.9947 908.2822,-396.0467 916.5968,-402.613 918.8769,-395.9947"/>
</g>
<!-- [root] aws_security_group.web_inbound_sg -->
<g id="node4" class="node">
<title>[root] aws_security_group.web_inbound_sg</title>
<polygon fill="none" stroke="#000000" points="1234.8107,-396 1006.9825,-396 1006.9825,-360 1234.8107,-360 1234.8107,-396"/>
<text text-anchor="middle" x="1120.8966" y="-373.8" font-family="Times,serif" font-size="14.00" fill="#000000">aws_security_group.web_inbound_sg</text>
</g>
<!-- [root] aws_elb.web&#45;&gt;[root] aws_security_group.web_inbound_sg -->
<g id="edge2" class="edge">
<title>[root] aws_elb.web&#45;&gt;[root] aws_security_group.web_inbound_sg</title>
<path fill="none" stroke="#000000" d="M1079.0278,-431.8314C1085.4777,-423.5386 1093.2412,-413.557 1100.3218,-404.4533"/>
<polygon fill="#000000" stroke="#000000" points="1103.1985,-406.4556 1106.5752,-396.4133 1097.673,-402.158 1103.1985,-406.4556"/>
</g>
<!-- [root] aws_security_group.web_host_sg -->
<g id="node3" class="node">
<title>[root] aws_security_group.web_host_sg</title>
<polygon fill="none" stroke="#000000" points="743.7593,-324 538.034,-324 538.034,-288 743.7593,-288 743.7593,-324"/>
<text text-anchor="middle" x="640.8966" y="-301.8" font-family="Times,serif" font-size="14.00" fill="#000000">aws_security_group.web_host_sg</text>
</g>
<!-- [root] aws_instance.web&#45;&gt;[root] aws_security_group.web_host_sg -->
<g id="edge3" class="edge">
<title>[root] aws_instance.web&#45;&gt;[root] aws_security_group.web_host_sg</title>
<path fill="none" stroke="#000000" d="M801.9206,-359.9243C772.401,-350.0387 735.6522,-337.7321 704.7177,-327.3726"/>
<polygon fill="#000000" stroke="#000000" points="705.4888,-323.9399 694.8949,-324.0831 703.2659,-330.5776 705.4888,-323.9399"/>
</g>
<!-- [root] module.vpc.output.public_subnet_id -->
<g id="node10" class="node">
<title>[root] module.vpc.output.public_subnet_id</title>
<ellipse fill="none" stroke="#000000" cx="161.8966" cy="-306" rx="161.7933" ry="18"/>
<text text-anchor="middle" x="161.8966" y="-301.8" font-family="Times,serif" font-size="14.00" fill="#000000">[root] module.vpc.output.public_subnet_id</text>
</g>
<!-- [root] aws_instance.web&#45;&gt;[root] module.vpc.output.public_subnet_id -->
<g id="edge4" class="edge">
<title>[root] aws_instance.web&#45;&gt;[root] module.vpc.output.public_subnet_id</title>
<path fill="none" stroke="#000000" d="M797.0676,-371.9644C700.2616,-362.024 501.3107,-341.5583 332.8966,-324 318.9049,-322.5413 304.2699,-321.0096 289.7026,-319.4814"/>
<polygon fill="#000000" stroke="#000000" points="289.9479,-315.988 279.6371,-318.4248 289.217,-322.9497 289.9479,-315.988"/>
</g>
<!-- [root] var.ami -->
<g id="node11" class="node">
<title>[root] var.ami</title>
<ellipse fill="none" stroke="#000000" cx="1210.8966" cy="-306" rx="58.9668" ry="18"/>
<text text-anchor="middle" x="1210.8966" y="-301.8" font-family="Times,serif" font-size="14.00" fill="#000000">[root] var.ami</text>
</g>
<!-- [root] aws_instance.web&#45;&gt;[root] var.ami -->
<g id="edge5" class="edge">
<title>[root] aws_instance.web&#45;&gt;[root] var.ami</title>
<path fill="none" stroke="#000000" d="M914.6934,-368.2274C972.8864,-358.2522 1064.3912,-341.7512 1142.8966,-324 1147.5644,-322.9445 1152.3966,-321.7904 1157.2334,-320.5926"/>
<polygon fill="#000000" stroke="#000000" points="1158.2819,-323.9376 1167.1169,-318.0901 1156.5637,-317.1518 1158.2819,-323.9376"/>
</g>
<!-- [root] var.instance_ips -->
<g id="node12" class="node">
<title>[root] var.instance_ips</title>
<ellipse fill="none" stroke="#000000" cx="430.8966" cy="-306" rx="89.3774" ry="18"/>
<text text-anchor="middle" x="430.8966" y="-301.8" font-family="Times,serif" font-size="14.00" fill="#000000">[root] var.instance_ips</text>
</g>
<!-- [root] aws_instance.web&#45;&gt;[root] var.instance_ips -->
<g id="edge6" class="edge">
<title>[root] aws_instance.web&#45;&gt;[root] var.instance_ips</title>
<path fill="none" stroke="#000000" d="M797.0667,-368.6117C731.5621,-358.0822 622.5673,-340.3353 528.8966,-324 521.6095,-322.7292 514.0224,-321.3807 506.439,-320.0159"/>
<polygon fill="#000000" stroke="#000000" points="506.9607,-316.5536 496.4973,-318.2176 505.7146,-323.4418 506.9607,-316.5536"/>
</g>
<!-- [root] var.instance_type -->
<g id="node13" class="node">
<title>[root] var.instance_type</title>
<ellipse fill="none" stroke="#000000" cx="855.8966" cy="-306" rx="94.1878" ry="18"/>
<text text-anchor="middle" x="855.8966" y="-301.8" font-family="Times,serif" font-size="14.00" fill="#000000">[root] var.instance_type</text>
</g>
<!-- [root] aws_instance.web&#45;&gt;[root] var.instance_type -->
<g id="edge7" class="edge">
<title>[root] aws_instance.web&#45;&gt;[root] var.instance_type</title>
<path fill="none" stroke="#000000" d="M855.8966,-359.8314C855.8966,-352.131 855.8966,-342.9743 855.8966,-334.4166"/>
<polygon fill="#000000" stroke="#000000" points="859.3967,-334.4132 855.8966,-324.4133 852.3967,-334.4133 859.3967,-334.4132"/>
</g>
<!-- [root] var.owner_tag -->
<g id="node14" class="node">
<title>[root] var.owner_tag</title>
<ellipse fill="none" stroke="#000000" cx="1050.8966" cy="-306" rx="82.5959" ry="18"/>
<text text-anchor="middle" x="1050.8966" y="-301.8" font-family="Times,serif" font-size="14.00" fill="#000000">[root] var.owner_tag</text>
</g>
<!-- [root] aws_instance.web&#45;&gt;[root] var.owner_tag -->
<g id="edge8" class="edge">
<title>[root] aws_instance.web&#45;&gt;[root] var.owner_tag</title>
<path fill="none" stroke="#000000" d="M904.8517,-359.9243C933.6379,-349.2955 970.0037,-335.8682 999.2453,-325.0712"/>
<polygon fill="#000000" stroke="#000000" points="1000.6991,-328.2655 1008.8677,-321.5184 998.2744,-321.6988 1000.6991,-328.2655"/>
</g>
<!-- [root] module.vpc.output.cidr -->
<g id="node15" class="node">
<title>[root] module.vpc.output.cidr</title>
<ellipse fill="none" stroke="#000000" cx="640.8966" cy="-234" rx="114.9605" ry="18"/>
<text text-anchor="middle" x="640.8966" y="-229.8" font-family="Times,serif" font-size="14.00" fill="#000000">[root] module.vpc.output.cidr</text>
</g>
<!-- [root] aws_security_group.web_host_sg&#45;&gt;[root] module.vpc.output.cidr -->
<g id="edge9" class="edge">
<title>[root] aws_security_group.web_host_sg&#45;&gt;[root] module.vpc.output.cidr</title>
<path fill="none" stroke="#000000" d="M640.8966,-287.8314C640.8966,-280.131 640.8966,-270.9743 640.8966,-262.4166"/>
<polygon fill="#000000" stroke="#000000" points="644.3967,-262.4132 640.8966,-252.4133 637.3967,-262.4133 644.3967,-262.4132"/>
</g>
<!-- [root] module.vpc.output.vpc_id -->
<g id="node16" class="node">
<title>[root] module.vpc.output.vpc_id</title>
<ellipse fill="none" stroke="#000000" cx="898.8966" cy="-234" rx="125.1006" ry="18"/>
<text text-anchor="middle" x="898.8966" y="-229.8" font-family="Times,serif" font-size="14.00" fill="#000000">[root] module.vpc.output.vpc_id</text>
</g>
<!-- [root] aws_security_group.web_host_sg&#45;&gt;[root] module.vpc.output.vpc_id -->
<g id="edge10" class="edge">
<title>[root] aws_security_group.web_host_sg&#45;&gt;[root] module.vpc.output.vpc_id</title>
<path fill="none" stroke="#000000" d="M705.6679,-287.9243C744.0598,-277.2103 792.6417,-263.6525 831.4872,-252.8119"/>
<polygon fill="#000000" stroke="#000000" points="832.4502,-256.177 841.1413,-250.1178 830.5686,-249.4346 832.4502,-256.177"/>
</g>
<!-- [root] aws_security_group.web_inbound_sg&#45;&gt;[root] module.vpc.output.vpc_id -->
<g id="edge11" class="edge">
<title>[root] aws_security_group.web_inbound_sg&#45;&gt;[root] module.vpc.output.vpc_id</title>
<path fill="none" stroke="#000000" d="M1206.3896,-359.9476C1257.7182,-345.2497 1307.918,-321.437 1278.8966,-288 1261.8657,-268.3777 1124.5351,-252.6211 1019.8125,-243.3034"/>
<polygon fill="#000000" stroke="#000000" points="1020.0531,-239.8111 1009.785,-242.4218 1019.44,-246.7842 1020.0531,-239.8111"/>
</g>
<!-- [root] module.vpc.aws_internet_gateway.tfb -->
<g id="node5" class="node">
<title>[root] module.vpc.aws_internet_gateway.tfb</title>
<polygon fill="none" stroke="#000000" points="1402.9196,-468 1174.8737,-468 1174.8737,-432 1402.9196,-432 1402.9196,-468"/>
<text text-anchor="middle" x="1288.8966" y="-445.8" font-family="Times,serif" font-size="14.00" fill="#000000">module.vpc.aws_internet_gateway.tfb</text>
</g>
<!-- [root] module.vpc.aws_vpc.tfb -->
<g id="node8" class="node">
<title>[root] module.vpc.aws_vpc.tfb</title>
<polygon fill="none" stroke="#000000" points="783.6419,-180 630.1513,-180 630.1513,-144 783.6419,-144 783.6419,-180"/>
<text text-anchor="middle" x="706.8966" y="-157.8" font-family="Times,serif" font-size="14.00" fill="#000000">module.vpc.aws_vpc.tfb</text>
</g>
<!-- [root] module.vpc.aws_internet_gateway.tfb&#45;&gt;[root] module.vpc.aws_vpc.tfb -->
<g id="edge17" class="edge">
<title>[root] module.vpc.aws_internet_gateway.tfb&#45;&gt;[root] module.vpc.aws_vpc.tfb</title>
<path fill="none" stroke="#000000" d="M1296.5945,-431.9837C1309.1288,-399.5217 1329.4578,-330.6308 1296.8966,-288 1236.6901,-209.1745 942.6281,-178.0179 793.695,-167.1415"/>
<polygon fill="#000000" stroke="#000000" points="793.8877,-163.6464 783.6633,-166.4236 793.3879,-170.6286 793.8877,-163.6464"/>
</g>
<!-- [root] module.vpc.aws_route.internet_access -->
<g id="node6" class="node">
<title>[root] module.vpc.aws_route.internet_access</title>
<polygon fill="none" stroke="#000000" points="1115.6526,-540 884.1406,-540 884.1406,-504 1115.6526,-504 1115.6526,-540"/>
<text text-anchor="middle" x="999.8966" y="-517.8" font-family="Times,serif" font-size="14.00" fill="#000000">module.vpc.aws_route.internet_access</text>
</g>
<!-- [root] module.vpc.aws_route.internet_access&#45;&gt;[root] module.vpc.aws_internet_gateway.tfb -->
<g id="edge18" class="edge">
<title>[root] module.vpc.aws_route.internet_access&#45;&gt;[root] module.vpc.aws_internet_gateway.tfb</title>
<path fill="none" stroke="#000000" d="M1072.4505,-503.9243C1113.3243,-493.7412 1164.5094,-480.9892 1206.8415,-470.4428"/>
<polygon fill="#000000" stroke="#000000" points="1207.7063,-473.8344 1216.5636,-468.0207 1206.0141,-467.042 1207.7063,-473.8344"/>
</g>
<!-- [root] module.vpc.aws_subnet.public -->
<g id="node7" class="node">
<title>[root] module.vpc.aws_subnet.public</title>
<polygon fill="none" stroke="#000000" points="442.421,-252 253.3722,-252 253.3722,-216 442.421,-216 442.421,-252"/>
<text text-anchor="middle" x="347.8966" y="-229.8" font-family="Times,serif" font-size="14.00" fill="#000000">module.vpc.aws_subnet.public</text>
</g>
<!-- [root] module.vpc.aws_subnet.public&#45;&gt;[root] module.vpc.aws_vpc.tfb -->
<g id="edge19" class="edge">
<title>[root] module.vpc.aws_subnet.public&#45;&gt;[root] module.vpc.aws_vpc.tfb</title>
<path fill="none" stroke="#000000" d="M438.0241,-215.9243C493.7503,-204.748 564.9057,-190.4773 620.0171,-179.4243"/>
<polygon fill="#000000" stroke="#000000" points="620.9971,-182.7975 630.1136,-177.3994 619.6205,-175.9342 620.9971,-182.7975"/>
</g>
<!-- [root] module.vpc.var.public_subnet -->
<g id="node22" class="node">
<title>[root] module.vpc.var.public_subnet</title>
<ellipse fill="none" stroke="#000000" cx="347.8966" cy="-162" rx="138.6071" ry="18"/>
<text text-anchor="middle" x="347.8966" y="-157.8" font-family="Times,serif" font-size="14.00" fill="#000000">[root] module.vpc.var.public_subnet</text>
</g>
<!-- [root] module.vpc.aws_subnet.public&#45;&gt;[root] module.vpc.var.public_subnet -->
<g id="edge20" class="edge">
<title>[root] module.vpc.aws_subnet.public&#45;&gt;[root] module.vpc.var.public_subnet</title>
<path fill="none" stroke="#000000" d="M347.8966,-215.8314C347.8966,-208.131 347.8966,-198.9743 347.8966,-190.4166"/>
<polygon fill="#000000" stroke="#000000" points="351.3967,-190.4132 347.8966,-180.4133 344.3967,-190.4133 351.3967,-190.4132"/>
</g>
<!-- [root] provider.aws -->
<g id="node9" class="node">
<title>[root] provider.aws</title>
<polygon fill="none" stroke="#000000" points="215.8966,-108 137.2883,-90 215.8966,-72 294.505,-90 215.8966,-108"/>
<text text-anchor="middle" x="215.8966" y="-85.8" font-family="Times,serif" font-size="14.00" fill="#000000">provider.aws</text>
</g>
<!-- [root] module.vpc.aws_vpc.tfb&#45;&gt;[root] provider.aws -->
<g id="edge25" class="edge">
<title>[root] module.vpc.aws_vpc.tfb&#45;&gt;[root] provider.aws</title>
<path fill="none" stroke="#000000" d="M629.953,-153.3666C548.4866,-143.8401 416.2584,-127.2781 302.8966,-108 290.8983,-105.9596 278.0311,-103.4669 265.9704,-100.9946"/>
<polygon fill="#000000" stroke="#000000" points="266.5694,-97.5444 256.066,-98.9331 265.1429,-104.3975 266.5694,-97.5444"/>
</g>
<!-- [root] module.vpc.var.cidr -->
<g id="node23" class="node">
<title>[root] module.vpc.var.cidr</title>
<ellipse fill="none" stroke="#000000" cx="414.8966" cy="-90" rx="102.8747" ry="18"/>
<text text-anchor="middle" x="414.8966" y="-85.8" font-family="Times,serif" font-size="14.00" fill="#000000">[root] module.vpc.var.cidr</text>
</g>
<!-- [root] module.vpc.aws_vpc.tfb&#45;&gt;[root] module.vpc.var.cidr -->
<g id="edge21" class="edge">
<title>[root] module.vpc.aws_vpc.tfb&#45;&gt;[root] module.vpc.var.cidr</title>
<path fill="none" stroke="#000000" d="M633.5896,-143.9243C587.8854,-132.6548 529.4213,-118.239 484.4427,-107.1484"/>
<polygon fill="#000000" stroke="#000000" points="485.0274,-103.6878 474.4803,-104.6919 483.3515,-110.4842 485.0274,-103.6878"/>
</g>
<!-- [root] module.vpc.var.enable_dns_hostnames -->
<g id="node24" class="node">
<title>[root] module.vpc.var.enable_dns_hostnames</title>
<ellipse fill="none" stroke="#000000" cx="706.8966" cy="-90" rx="170.9546" ry="18"/>
<text text-anchor="middle" x="706.8966" y="-85.8" font-family="Times,serif" font-size="14.00" fill="#000000">[root] module.vpc.var.enable_dns_hostnames</text>
</g>
<!-- [root] module.vpc.aws_vpc.tfb&#45;&gt;[root] module.vpc.var.enable_dns_hostnames -->
<g id="edge22" class="edge">
<title>[root] module.vpc.aws_vpc.tfb&#45;&gt;[root] module.vpc.var.enable_dns_hostnames</title>
<path fill="none" stroke="#000000" d="M706.8966,-143.8314C706.8966,-136.131 706.8966,-126.9743 706.8966,-118.4166"/>
<polygon fill="#000000" stroke="#000000" points="710.3967,-118.4132 706.8966,-108.4133 703.3967,-118.4133 710.3967,-118.4132"/>
</g>
<!-- [root] module.vpc.var.enable_dns_support -->
<g id="node25" class="node">
<title>[root] module.vpc.var.enable_dns_support</title>
<ellipse fill="none" stroke="#000000" cx="1055.8966" cy="-90" rx="159.8465" ry="18"/>
<text text-anchor="middle" x="1055.8966" y="-85.8" font-family="Times,serif" font-size="14.00" fill="#000000">[root] module.vpc.var.enable_dns_support</text>
</g>
<!-- [root] module.vpc.aws_vpc.tfb&#45;&gt;[root] module.vpc.var.enable_dns_support -->
<g id="edge23" class="edge">
<title>[root] module.vpc.aws_vpc.tfb&#45;&gt;[root] module.vpc.var.enable_dns_support</title>
<path fill="none" stroke="#000000" d="M783.9182,-146.1102C838.645,-134.8198 912.2057,-119.644 969.0258,-107.9218"/>
<polygon fill="#000000" stroke="#000000" points="969.9852,-111.2976 979.0718,-105.8493 968.5708,-104.442 969.9852,-111.2976"/>
</g>
<!-- [root] module.vpc.var.name -->
<g id="node26" class="node">
<title>[root] module.vpc.var.name</title>
<ellipse fill="none" stroke="#000000" cx="1341.8966" cy="-90" rx="108.1787" ry="18"/>
<text text-anchor="middle" x="1341.8966" y="-85.8" font-family="Times,serif" font-size="14.00" fill="#000000">[root] module.vpc.var.name</text>
</g>
<!-- [root] module.vpc.aws_vpc.tfb&#45;&gt;[root] module.vpc.var.name -->
<g id="edge24" class="edge">
<title>[root] module.vpc.aws_vpc.tfb&#45;&gt;[root] module.vpc.var.name</title>
<path fill="none" stroke="#000000" d="M783.826,-155.1621C885.1071,-145.8892 1068.6376,-128.1525 1224.8966,-108 1234.2758,-106.7904 1244.0635,-105.434 1253.8096,-104.0228"/>
<polygon fill="#000000" stroke="#000000" points="1254.5471,-107.4521 1263.9323,-102.5361 1253.5299,-100.5264 1254.5471,-107.4521"/>
</g>
<!-- [root] var.region -->
<g id="node28" class="node">
<title>[root] var.region</title>
<ellipse fill="none" stroke="#000000" cx="215.8966" cy="-18" rx="68.1287" ry="18"/>
<text text-anchor="middle" x="215.8966" y="-13.8" font-family="Times,serif" font-size="14.00" fill="#000000">[root] var.region</text>
</g>
<!-- [root] provider.aws&#45;&gt;[root] var.region -->
<g id="edge34" class="edge">
<title>[root] provider.aws&#45;&gt;[root] var.region</title>
<path fill="none" stroke="#000000" d="M215.8966,-71.8314C215.8966,-64.131 215.8966,-54.9743 215.8966,-46.4166"/>
<polygon fill="#000000" stroke="#000000" points="219.3967,-46.4132 215.8966,-36.4133 212.3967,-46.4133 219.3967,-46.4132"/>
</g>
<!-- [root] module.vpc.output.public_subnet_id&#45;&gt;[root] module.vpc.aws_subnet.public -->
<g id="edge27" class="edge">
<title>[root] module.vpc.output.public_subnet_id&#45;&gt;[root] module.vpc.aws_subnet.public</title>
<path fill="none" stroke="#000000" d="M206.922,-288.5708C232.5045,-278.6679 264.7565,-266.1833 291.9535,-255.6554"/>
<polygon fill="#000000" stroke="#000000" points="293.2812,-258.8946 301.3434,-252.0206 290.7542,-252.3666 293.2812,-258.8946"/>
</g>
<!-- [root] module.vpc.output.cidr&#45;&gt;[root] module.vpc.aws_vpc.tfb -->
<g id="edge26" class="edge">
<title>[root] module.vpc.output.cidr&#45;&gt;[root] module.vpc.aws_vpc.tfb</title>
<path fill="none" stroke="#000000" d="M657.5512,-215.8314C665.308,-207.3694 674.6768,-197.1489 683.1576,-187.8971"/>
<polygon fill="#000000" stroke="#000000" points="685.8406,-190.1499 690.0178,-180.4133 680.6805,-185.4198 685.8406,-190.1499"/>
</g>
<!-- [root] module.vpc.output.vpc_id&#45;&gt;[root] module.vpc.aws_vpc.tfb -->
<g id="edge28" class="edge">
<title>[root] module.vpc.output.vpc_id&#45;&gt;[root] module.vpc.aws_vpc.tfb</title>
<path fill="none" stroke="#000000" d="M853.8812,-217.1192C827.1933,-207.1112 793.0997,-194.3262 764.4682,-183.5893"/>
<polygon fill="#000000" stroke="#000000" points="765.5786,-180.2678 754.9863,-180.0336 763.1207,-186.8221 765.5786,-180.2678"/>
</g>
<!-- [root] meta.count&#45;boundary (count boundary fixup) -->
<g id="node17" class="node">
<title>[root] meta.count&#45;boundary (count boundary fixup)</title>
<ellipse fill="none" stroke="#000000" cx="745.8966" cy="-594" rx="191.6931" ry="18"/>
<text text-anchor="middle" x="745.8966" y="-589.8" font-family="Times,serif" font-size="14.00" fill="#000000">[root] meta.count&#45;boundary (count boundary fixup)</text>
</g>
<!-- [root] meta.count&#45;boundary (count boundary fixup)&#45;&gt;[root] module.vpc.aws_route.internet_access -->
<g id="edge12" class="edge">
<title>[root] meta.count&#45;boundary (count boundary fixup)&#45;&gt;[root] module.vpc.aws_route.internet_access</title>
<path fill="none" stroke="#000000" d="M806.4133,-576.8457C842.3775,-566.6511 888.2477,-553.6485 926.2982,-542.8625"/>
<polygon fill="#000000" stroke="#000000" points="927.6327,-546.1223 936.2991,-540.0277 925.7236,-539.3876 927.6327,-546.1223"/>
</g>
<!-- [root] output.addresses -->
<g id="node18" class="node">
<title>[root] output.addresses</title>
<ellipse fill="none" stroke="#000000" cx="855.8966" cy="-450" rx="91.3067" ry="18"/>
<text text-anchor="middle" x="855.8966" y="-445.8" font-family="Times,serif" font-size="14.00" fill="#000000">[root] output.addresses</text>
</g>
<!-- [root] meta.count&#45;boundary (count boundary fixup)&#45;&gt;[root] output.addresses -->
<g id="edge13" class="edge">
<title>[root] meta.count&#45;boundary (count boundary fixup)&#45;&gt;[root] output.addresses</title>
<path fill="none" stroke="#000000" d="M791.3311,-576.412C808.0051,-567.809 825.556,-555.83 836.8966,-540 849.7062,-522.1195 854.232,-497.427 855.6797,-478.4283"/>
<polygon fill="#000000" stroke="#000000" points="859.184,-478.4356 856.2083,-468.2673 852.1934,-478.0719 859.184,-478.4356"/>
</g>
<!-- [root] output.elb_address -->
<g id="node19" class="node">
<title>[root] output.elb_address</title>
<ellipse fill="none" stroke="#000000" cx="546.8966" cy="-522" rx="99.0243" ry="18"/>
<text text-anchor="middle" x="546.8966" y="-517.8" font-family="Times,serif" font-size="14.00" fill="#000000">[root] output.elb_address</text>
</g>
<!-- [root] meta.count&#45;boundary (count boundary fixup)&#45;&gt;[root] output.elb_address -->
<g id="edge14" class="edge">
<title>[root] meta.count&#45;boundary (count boundary fixup)&#45;&gt;[root] output.elb_address</title>
<path fill="none" stroke="#000000" d="M697.7243,-576.5708C668.5578,-566.0181 631.2885,-552.5337 601.0952,-541.6095"/>
<polygon fill="#000000" stroke="#000000" points="602.1542,-538.2707 591.56,-538.1596 599.7726,-544.8531 602.1542,-538.2707"/>
</g>
<!-- [root] output.public_subnet_id -->
<g id="node20" class="node">
<title>[root] output.public_subnet_id</title>
<ellipse fill="none" stroke="#000000" cx="226.8966" cy="-378" rx="118.3607" ry="18"/>
<text text-anchor="middle" x="226.8966" y="-373.8" font-family="Times,serif" font-size="14.00" fill="#000000">[root] output.public_subnet_id</text>
</g>
<!-- [root] meta.count&#45;boundary (count boundary fixup)&#45;&gt;[root] output.public_subnet_id -->
<g id="edge15" class="edge">
<title>[root] meta.count&#45;boundary (count boundary fixup)&#45;&gt;[root] output.public_subnet_id</title>
<path fill="none" stroke="#000000" d="M630.9613,-579.5502C558.693,-569.3597 472.9073,-554.9159 438.8966,-540 362.263,-506.391 288.2164,-439.5453 251.2665,-403.1069"/>
<polygon fill="#000000" stroke="#000000" points="253.509,-400.4002 243.9573,-395.8158 248.5653,-405.3561 253.509,-400.4002"/>
</g>
<!-- [root] var.key_name -->
<g id="node21" class="node">
<title>[root] var.key_name</title>
<ellipse fill="none" stroke="#000000" cx="745.8966" cy="-522" rx="81.6268" ry="18"/>
<text text-anchor="middle" x="745.8966" y="-517.8" font-family="Times,serif" font-size="14.00" fill="#000000">[root] var.key_name</text>
</g>
<!-- [root] meta.count&#45;boundary (count boundary fixup)&#45;&gt;[root] var.key_name -->
<g id="edge16" class="edge">
<title>[root] meta.count&#45;boundary (count boundary fixup)&#45;&gt;[root] var.key_name</title>
<path fill="none" stroke="#000000" d="M745.8966,-575.8314C745.8966,-568.131 745.8966,-558.9743 745.8966,-550.4166"/>
<polygon fill="#000000" stroke="#000000" points="749.3967,-550.4132 745.8966,-540.4133 742.3967,-550.4133 749.3967,-550.4132"/>
</g>
<!-- [root] output.addresses&#45;&gt;[root] aws_instance.web -->
<g id="edge29" class="edge">
<title>[root] output.addresses&#45;&gt;[root] aws_instance.web</title>
<path fill="none" stroke="#000000" d="M855.8966,-431.8314C855.8966,-424.131 855.8966,-414.9743 855.8966,-406.4166"/>
<polygon fill="#000000" stroke="#000000" points="859.3967,-406.4132 855.8966,-396.4133 852.3967,-406.4133 859.3967,-406.4132"/>
</g>
<!-- [root] output.elb_address&#45;&gt;[root] aws_elb.web -->
<g id="edge30" class="edge">
<title>[root] output.elb_address&#45;&gt;[root] aws_elb.web</title>
<path fill="none" stroke="#000000" d="M618.5705,-509.5784C630.6805,-507.6163 643.136,-505.6824 654.8966,-504 788.27,-484.9201 822.5091,-486.9807 955.8966,-468 973.7541,-465.4589 993.201,-462.3557 1010.6598,-459.4463"/>
<polygon fill="#000000" stroke="#000000" points="1011.4011,-462.8709 1020.6824,-457.7614 1010.2405,-455.9677 1011.4011,-462.8709"/>
</g>
<!-- [root] output.public_subnet_id&#45;&gt;[root] module.vpc.output.public_subnet_id -->
<g id="edge31" class="edge">
<title>[root] output.public_subnet_id&#45;&gt;[root] module.vpc.output.public_subnet_id</title>
<path fill="none" stroke="#000000" d="M210.4944,-359.8314C202.7376,-351.2392 193.344,-340.834 184.8911,-331.4708"/>
<polygon fill="#000000" stroke="#000000" points="187.3675,-328.9907 178.0685,-323.9134 182.1716,-333.6815 187.3675,-328.9907"/>
</g>
<!-- [root] provider.aws (close) -->
<g id="node27" class="node">
<title>[root] provider.aws (close)</title>
<ellipse fill="none" stroke="#000000" cx="1059.8966" cy="-594" rx="104.3276" ry="18"/>
<text text-anchor="middle" x="1059.8966" y="-589.8" font-family="Times,serif" font-size="14.00" fill="#000000">[root] provider.aws (close)</text>
</g>
<!-- [root] provider.aws (close)&#45;&gt;[root] aws_elb.web -->
<g id="edge32" class="edge">
<title>[root] provider.aws (close)&#45;&gt;[root] aws_elb.web</title>
<path fill="none" stroke="#000000" d="M1090.8076,-576.8008C1103.8841,-567.7215 1117.7289,-555.2733 1124.8966,-540 1131.6941,-525.5157 1131.406,-518.616 1124.8966,-504 1119.8633,-492.6983 1111.1662,-482.7696 1101.9308,-474.611"/>
<polygon fill="#000000" stroke="#000000" points="1104.0617,-471.8319 1094.115,-468.1828 1099.6151,-477.2382 1104.0617,-471.8319"/>
</g>
<!-- [root] provider.aws (close)&#45;&gt;[root] module.vpc.aws_route.internet_access -->
<g id="edge33" class="edge">
<title>[root] provider.aws (close)&#45;&gt;[root] module.vpc.aws_route.internet_access</title>
<path fill="none" stroke="#000000" d="M1044.7561,-575.8314C1037.775,-567.454 1029.3576,-557.3531 1021.7091,-548.1749"/>
<polygon fill="#000000" stroke="#000000" points="1024.3317,-545.8548 1015.241,-540.4133 1018.9541,-550.3362 1024.3317,-545.8548"/>
</g>
<!-- [root] root -->
<g id="node29" class="node">
<title>[root] root</title>
<ellipse fill="none" stroke="#000000" cx="902.8966" cy="-666" rx="46.8976" ry="18"/>
<text text-anchor="middle" x="902.8966" y="-661.8" font-family="Times,serif" font-size="14.00" fill="#000000">[root] root</text>
</g>
<!-- [root] root&#45;&gt;[root] meta.count&#45;boundary (count boundary fixup) -->
<g id="edge35" class="edge">
<title>[root] root&#45;&gt;[root] meta.count&#45;boundary (count boundary fixup)</title>
<path fill="none" stroke="#000000" d="M872.6254,-652.1177C850.2459,-641.8544 819.3278,-627.6754 793.6333,-615.892"/>
<polygon fill="#000000" stroke="#000000" points="794.9775,-612.658 784.4288,-611.6708 792.0595,-619.0208 794.9775,-612.658"/>
</g>
<!-- [root] root&#45;&gt;[root] provider.aws (close) -->
<g id="edge36" class="edge">
<title>[root] root&#45;&gt;[root] provider.aws (close)</title>
<path fill="none" stroke="#000000" d="M933.1678,-652.1177C956.0235,-641.6361 987.785,-627.0703 1013.7928,-615.1432"/>
<polygon fill="#000000" stroke="#000000" points="1015.4564,-618.2308 1023.0871,-610.8808 1012.5384,-611.868 1015.4564,-618.2308"/>
</g>
</g>
</svg>
